<svg width="800" height="800" viewBox="0 0 800 800" fill="none" xmlns="http://www.w3.org/2000/svg">
<rect width="800" height="800" rx="400" fill="#649DA8"/>
<path fill-rule="evenodd" clip-rule="evenodd" d="M372.292 139.2C388.459 166.261 391.053 188.815 384.807 241.295C115.679 264.42 20.5655 437.883 64.7943 556.178C140.948 441.211 226.917 456.45 339.218 568C319.217 478.092 286.515 436.372 197.984 382.079C256.153 370.958 301.875 388.661 391.958 435.813L347.263 470.203C399.334 484.411 432.898 468.71 475.983 479.876C519.069 491.042 597.978 561.743 599.34 560.477L606.491 491.697C695.224 502.698 733.052 487.089 780.8 422.917C731.007 425.08 700.795 439.607 658.335 418.217C615.875 396.824 597.011 314.067 525.147 293.955C489.846 175.406 449.649 144.929 372.292 139.2ZM403.578 272.461C409.213 250.323 411.804 233.732 412.099 215.503C412.294 203.333 411.466 190.433 409.836 174.665C425.886 179.93 440.299 189.034 452.742 201.459C474.432 223.12 490.13 254.87 498.055 293.955C501.177 309.351 503.093 325.886 503.694 343.39C419.794 311.906 371.895 299.087 284.691 286.432C326.797 273.206 353.891 272.059 403.578 272.461ZM218.543 314.374C185.661 332.788 171.467 343.15 149.714 361.66C225.031 339.847 269.647 342.869 340.112 376.706C410.576 410.543 446.485 418.619 448.273 419.693C450.061 420.768 430.073 434.214 422.35 446.56H472.408C472.953 432.198 474.239 420.686 476.491 410.021C479.364 396.42 483.807 384.194 490.286 369.183C383.305 329.458 322.444 318.689 218.543 314.374ZM256.087 465.905C202.292 447.227 166.268 439.751 126.472 456.83C111.066 463.439 95.0945 473.731 77.3077 488.473C74.7983 428.344 136.638 402.498 149.152 403.573C160.773 402.498 233.973 425.989 256.087 465.905ZM542.131 333.718C538.62 336.436 535.325 339.12 532.232 341.804C504.829 365.581 493.307 389.282 488.233 435.813C487.643 441.223 487.139 446.943 486.71 453.008C513.779 460.248 537.948 479.581 579.675 509.967C581.094 487.119 582.108 473.539 585.932 454.083C635.561 472.826 657.33 471.383 693.199 460.531C670.179 454.305 638.984 443.921 615.43 422.386C607.929 415.53 601.205 407.543 595.765 398.199C591.208 390.374 587.142 383.427 583.25 377.179C573.9 362.176 565.542 351.208 553.752 341.804C550.225 338.991 546.39 336.317 542.131 333.718Z" fill="white"/>
<path d="M552 341.069C548.591 338.192 544.884 335.458 540.768 332.8C537.374 335.58 534.189 338.325 531.2 341.069C536.512 345.282 541.319 349.452 545.726 353.6C548.067 349.382 550.049 345.386 552 341.069Z" fill="#649DA8"/>
<path d="M595.2 397.821C590.402 390.293 586.121 383.611 582.023 377.6C577.557 378.398 573.446 379.128 569.6 379.802C578.203 389.483 585.598 399.308 593.515 409.6C592.945 406.048 593.419 402.01 595.2 397.821Z" fill="#649DA8"/>
<path d="M692.8 460.8C669.904 454.532 638.877 444.078 615.45 422.4C610.834 424.215 606.632 424.166 603.2 422.755C622.687 447.199 651.824 459.772 692.8 460.8Z" fill="white"/>
<path d="M616 422.617C608.178 415.752 601.167 407.755 595.495 398.4C593.731 402.76 593.262 406.963 593.826 410.66C595.704 413.224 597.611 415.817 599.57 418.442C600.729 419.994 601.926 421.505 603.158 422.97C606.756 424.374 611.161 424.423 616 422.617Z" fill="white"/>
<path d="M584 375.363C574.855 360.705 566.681 349.988 555.149 340.8C553.175 344.924 551.169 348.742 548.8 352.772C558.139 361.073 565.701 369.284 572.461 377.6C576.034 376.915 579.852 376.174 584 375.363Z" fill="white"/>
<path d="M403.678 272.533C353.994 272.134 326.902 273.273 284.8 286.4C330.288 280.311 355.514 276.553 413.842 286.4C421.34 263.629 424.579 247.554 425.6 230.534C421.715 225.95 417.466 221.386 412.198 216C411.903 234.093 409.313 250.56 403.678 272.533Z" fill="#649DA8"/>
<path d="M497.6 292.8C489.596 254.263 473.742 222.957 451.837 201.6C451.093 207.514 450.375 212.673 449.6 217.52C467.181 235.388 480.065 257.293 497.6 292.8Z" fill="#649DA8"/>
<path d="M126.4 456.141C166.192 438.34 202.212 446.132 256 465.6C200.212 433.228 163.566 422.011 127.597 441.869L126.4 456.141Z" fill="#649DA8"/>
<path d="M411.2 171.2C412.842 187.57 413.675 200.963 413.479 213.598C418.784 219.232 423.062 224.005 426.974 228.8C427.596 217.997 427.398 206.831 426.835 193.515C436.575 200.684 444.788 207.855 452.17 215.78C452.942 210.676 453.659 205.245 454.4 199.018C441.872 186.118 427.361 176.666 411.2 171.2Z" fill="white"/>
<path d="M78.3999 488C95.918 472.912 111.648 462.379 126.821 455.615L128 441.6C111.898 450.459 95.9339 465.622 78.3999 488Z" fill="white"/>
<path d="M421.121 446.4H471.121C471.666 431.916 472.95 420.305 475.2 409.549C415.359 392.485 368.775 369.624 319.668 350.026C270.561 330.428 199.548 334.013 148.8 360.776C224.03 338.776 268.594 341.824 338.978 375.95C409.361 410.076 445.228 418.22 447.014 419.304C448.8 420.388 428.836 433.949 421.121 446.4Z" fill="#649DA8"/>
<path d="M586.41 452.552C635.633 471.417 657.225 469.965 692.8 459.042C639.845 460.918 614.281 452.892 571.668 432C570.745 449.272 569.571 458.841 563.689 475.268C535.335 453.785 519.208 443.793 489.511 434.163C488.926 439.609 488.426 445.365 488 451.47C514.847 458.757 538.819 478.216 580.204 508.8C581.612 485.803 582.618 472.135 586.41 452.552Z" fill="#649DA8"/>
<path d="M425.6 195.2C426.134 207.93 426.321 218.606 425.731 228.934C431.338 235.869 436.15 242.851 442.334 252.8C445.752 238.293 447.828 228.311 449.6 216.486C442.607 208.91 434.827 202.054 425.6 195.2Z" fill="white"/>
<path d="M546.638 353.6C541.847 362.245 535.531 371.835 524.8 387.2C540.328 384.886 551.806 382.786 569.6 379.166C563.04 370.603 555.701 362.147 546.638 353.6Z" fill="white"/>
<path d="M599.509 417.692C597.493 414.962 595.531 412.265 593.6 409.6C594.513 415.638 598.055 420.377 603.2 422.4C601.932 420.876 600.701 419.305 599.509 417.692Z" fill="white"/>
<path d="M129.6 427.2C111.216 448.13 99.5044 462.317 78.3999 488C95.9811 466.672 111.988 452.22 128.133 443.777L129.6 427.2Z" fill="white"/>
</svg>
