<svg width="700" height="700" viewBox="0 0 700 700" fill="none" xmlns="http://www.w3.org/2000/svg">
<rect width="700" height="700" rx="350" fill="#649DA8"/>
<path fill-rule="evenodd" clip-rule="evenodd" d="M338.754 171C350.439 190.942 352.314 207.563 347.799 246.238C153.289 263.28 84.5465 391.112 116.512 478.288C171.552 393.564 233.685 404.794 314.85 487C300.394 420.743 276.759 389.998 212.774 349.987C254.815 341.792 287.861 354.838 352.967 389.586L320.665 414.93C358.299 425.4 382.557 413.829 413.696 422.058C444.836 430.286 501.867 482.389 502.851 481.456L508.02 430.769C572.151 438.876 599.49 427.373 634 380.083C598.012 381.676 576.177 392.382 545.49 376.619C514.802 360.853 501.168 299.867 449.229 285.045C423.715 197.682 394.664 175.222 338.754 171ZM361.366 269.206C365.439 252.891 367.311 240.664 367.524 227.231C367.665 218.262 367.067 208.756 365.888 197.135C377.489 201.015 387.906 207.725 396.899 216.881C412.575 232.844 423.921 256.242 429.649 285.045C431.905 296.391 433.29 308.577 433.724 321.476C373.085 298.274 338.467 288.827 275.441 279.501C305.873 269.755 325.455 268.909 361.366 269.206ZM227.633 300.093C203.868 313.663 193.61 321.299 177.887 334.94C232.322 318.865 264.568 321.092 315.496 346.028C366.423 370.964 392.377 376.915 393.669 377.707C394.961 378.499 380.515 388.408 374.933 397.506H411.112C411.506 386.922 412.435 378.439 414.063 370.579C416.14 360.556 419.35 351.546 424.033 340.484C346.714 311.208 302.726 303.273 227.633 300.093ZM254.767 411.762C215.888 397.997 189.852 392.488 161.089 405.074C149.955 409.945 138.412 417.529 125.556 428.393C123.743 384.082 168.437 365.035 177.482 365.827C185.88 365.035 238.785 382.346 254.767 411.762ZM461.504 314.348C458.966 316.351 456.585 318.33 454.35 320.307C434.544 337.829 426.217 355.295 422.55 389.586C422.123 393.573 421.759 397.788 421.449 402.258C441.013 407.593 458.481 421.841 488.638 444.233C489.664 427.396 490.397 417.388 493.161 403.05C529.029 416.862 544.763 415.799 570.687 407.802C554.05 403.213 531.504 395.561 514.48 379.691C509.059 374.639 504.199 368.753 500.267 361.867C496.974 356.1 494.035 350.981 491.222 346.376C484.465 335.32 478.424 327.237 469.903 320.307C467.353 318.234 464.582 316.264 461.504 314.348Z" fill="white"/>
<path d="M469 319.361C466.377 317.148 463.526 315.045 460.36 313C457.749 315.138 455.3 317.25 453 319.361C457.086 322.602 460.784 325.809 464.174 329C465.975 325.755 467.499 322.681 469 319.361Z" fill="#649DA8"/>
<path d="M500 361.534C496.439 356.123 493.261 351.32 490.22 347C486.906 347.574 483.854 348.098 481 348.583C487.385 355.54 492.873 362.602 498.75 370C498.326 367.447 498.678 364.545 500 361.534Z" fill="#649DA8"/>
<path d="M571 408C554.135 403.266 531.28 395.372 514.023 379C510.623 380.371 507.528 380.333 505 379.268C519.354 397.728 540.817 407.224 571 408Z" fill="white"/>
<path d="M515 379.028C509.413 374.201 504.405 368.578 500.353 362C499.094 365.066 498.758 368.021 499.162 370.621C500.502 372.423 501.865 374.246 503.264 376.092C504.092 377.183 504.947 378.246 505.827 379.276C508.397 380.263 511.543 380.298 515 379.028Z" fill="white"/>
<path d="M491 345.298C484.505 334.145 478.699 325.991 470.509 319C469.107 322.138 467.683 325.043 466 328.109C472.633 334.425 478.004 340.672 482.805 347C485.342 346.479 488.054 345.915 491 345.298Z" fill="white"/>
<path d="M361.119 269.758C325.127 269.462 305.5 270.304 275 280C307.953 275.502 326.227 272.727 368.483 280C373.914 263.181 376.261 251.307 377 238.735C374.186 235.349 371.108 231.979 367.291 228C367.078 241.364 365.201 253.527 361.119 269.758Z" fill="#649DA8"/>
<path d="M429 284C423.331 255.689 412.1 232.69 396.585 217C396.058 221.345 395.549 225.134 395 228.695C407.453 241.822 416.579 257.915 429 284Z" fill="#649DA8"/>
<path d="M160 404.681C188.862 390.906 214.987 396.935 254 412C213.536 386.95 186.957 378.27 160.868 393.636L160 404.681Z" fill="#649DA8"/>
<path d="M367 194C368.14 206.221 368.719 216.219 368.583 225.651C372.266 229.857 375.238 233.421 377.954 237C378.386 228.935 378.249 220.599 377.858 210.658C384.621 216.011 390.325 221.364 395.451 227.28C395.988 223.47 396.485 219.415 397 214.767C388.3 205.137 378.222 198.08 367 194Z" fill="white"/>
<path d="M126 428C138.362 416.619 149.461 408.674 160.168 403.572L161 393C149.638 399.682 138.373 411.12 126 428Z" fill="white"/>
<path d="M373.065 398H409.064C409.456 387.216 410.38 378.573 412 370.565C368.916 357.861 335.377 340.842 300.021 326.251C264.665 311.66 213.537 314.33 177 334.254C231.164 317.876 263.249 320.145 313.924 345.551C364.597 370.957 390.421 377.02 391.707 377.827C392.993 378.634 378.619 388.73 373.065 398Z" fill="#649DA8"/>
<path d="M494.117 401.254C529.688 415.255 545.292 414.177 571 406.07C532.731 407.463 514.258 401.506 483.463 386C482.796 398.819 481.948 405.921 477.697 418.113C457.207 402.169 445.552 394.752 424.092 387.606C423.669 391.647 423.308 395.92 423 400.451C442.401 405.858 459.725 420.301 489.632 443C490.649 425.932 491.376 415.788 494.117 401.254Z" fill="#649DA8"/>
<path d="M377 211C377.4 220.725 377.541 228.88 377.098 236.769C381.303 242.066 384.912 247.4 389.551 255C392.114 243.918 393.671 236.293 395 227.26C389.755 221.473 383.92 216.236 377 211Z" fill="white"/>
<path d="M464.598 329C461.177 335.175 456.665 342.025 449 353C460.092 351.347 468.29 349.847 481 347.262C476.314 341.145 471.072 335.105 464.598 329Z" fill="white"/>
<path d="M502.693 375.69C501.433 373.77 500.207 371.874 499 370C499.571 374.245 501.784 377.578 505 379C504.208 377.928 503.438 376.824 502.693 375.69Z" fill="white"/>
<path d="M163 383C149.715 398.491 141.251 408.991 126 428C138.705 412.214 150.273 401.518 161.94 395.269L163 383Z" fill="white"/>
</svg>
